<svg xmlns="http://www.w3.org/2000/svg" viewBox="0 0 474.65 518.4" width="50px" height="50px"><defs><style>.cls-1{fill:#fff;}</style></defs><g id="Layer_2" data-name="Layer 2"><g id="Layer_1-2" data-name="Layer 1"><path d="M224.26,332.31a83.91,83.91,0,0,1-8.7,0c-11.07-1.21-22.16-.78-33.24-.71-8.14.05-16.28,0-24.43,0H149.1c0-3,0-5.86,0-8.69,0-5.19-.13-10.39.09-15.57.17-4.12-.11-8.21-.09-12.31s-.2-8.3-.23-12.46q-.09-12-.05-23.93c0-2.88.39-5.75.32-8.62-.08-3.91-.43-7.81-.67-11.72-.06-.79-.2-1.58-.27-2.38-.33-4.08-.32-4.08-4-5.79-1.45-.67-2.88-1.37-4.37-2-6.93-2.73-12.82-7.11-18.56-11.72a65.19,65.19,0,0,1-16.45-19.15,122.27,122.27,0,0,1-7-16c-3.63-9.47-5.34-19.39-7.11-29.29-1.13-6.36-1.79-12.81-2.66-19.22a13,13,0,0,1,0-1.41,9.67,9.67,0,0,1,1.89-.1,35.54,35.54,0,0,1,15.83,6.29,4.88,4.88,0,0,1,1.09.93c2.59,3.55,5.12,7.11,5.8,11.64.58,3.86,1.33,7.7,2,11.56.75,4.4,3.4,7.53,6.95,9.92,3,2,6.14,3.72,9.19,5.61,1.14.72,2.2,1.57,3.3,2.36.84.6,1.63,1.35,3.06.73.15-1.7.37-3.51.46-5.32.74-14.38.67-28.77.23-43.15-.32-10.39-.47-20.79-.8-31.17-.36-11.74-1-23.48-1.23-35.22-.19-10.78-.08-21.57.14-32.35a68.8,68.8,0,0,1,2.24-16.82c.39-1.44,1.58-2.7,2.53-3.93A1.7,1.7,0,0,1,143.1,12c.47.27,1,.47,1.68.8l-.58-2.32a9.46,9.46,0,0,1,6.87-1.2,6.24,6.24,0,0,1,3.32,2.54,11.55,11.55,0,0,1,1.75,4.62c.65,4.42,1,8.89,1.56,13.32,1.48,12,1.6,24.08,1.82,36.15.31,16.22.41,32.45.64,48.67a59.66,59.66,0,0,0,.52,6,3,3,0,0,0,2.78,2.22,2.85,2.85,0,0,0,2.71-2,10.35,10.35,0,0,0,.22-2.61c-.18-8.87-.32-17.73-.58-26.6-.23-7.58-.86-15.16-.88-22.74,0-11.43.16-22.87.6-34.29.19-4.84,1.41-9.62,1.93-14.46A15,15,0,0,1,171.21,12a4.07,4.07,0,0,1,2.38-1.38c2.76-.33,5.56-.46,8.34-.57,3.32-.13,5.42,1.27,6,5.43a70.89,70.89,0,0,1,.5,10.51c0,6.79-.33,13.58-.45,20.38-.21,12.22-.31,24.44-.56,36.66-.2,10-.57,20-.81,30a26.41,26.41,0,0,0,.4,4.77,6.34,6.34,0,0,0,1.05,2.38c1.28,1.88,3,2.21,5,1a4.87,4.87,0,0,0,2.67-3.74c.23-2.39.57-4.76.72-7.15.44-7.1,1-14.2,1.17-21.3.33-13.27.48-26.53.63-39.8a227.42,227.42,0,0,1,1.87-24.61,27.77,27.77,0,0,1,1.54-6.27,5.58,5.58,0,0,1,4.17-3.63c3.52-.71,7-1.34,10.66-.32,2,.58,3.5,1.78,3.85,3.81a44.57,44.57,0,0,1,1,9.24C220.69,43.63,219.84,59.83,219,76q-.64,12.93-1.37,25.85c-.31,5.5-.66,11-1.12,16.5a7.69,7.69,0,0,0,.89,4.13,3.11,3.11,0,0,0,3.41,2,3,3,0,0,0,2.65-2.94c.35-3,.78-6,.93-9,.44-8.62.78-17.24,1.09-25.87.21-5.83.27-11.66.45-17.49a81.11,81.11,0,0,1,3.14-20.3,5.16,5.16,0,0,1,3.78-4c2.57-.54,5.18-.91,7.79-1.21A3.55,3.55,0,0,1,244.49,46a9.5,9.5,0,0,1,1.17,4.57c-.35,7.74-.59,15.49-1,23.23-.49,10-1,20-1.65,29.92-.6,9-1.44,18-2.14,27-.42,5.41-.86,10.83-1.11,16.26-.72,15.57-1.29,31.14-2,46.7-.24,5-.78,10-1.25,15a15.39,15.39,0,0,1-3.61,8.47c-3,3.71-6,7.51-9,11.21a4.39,4.39,0,0,0-1.14,3c0,16.31-.3,32.62-.11,48.93.15,12.78.85,25.56,1.31,38.34.09,2.54.22,5.09.29,7.63C224.29,328.27,224.26,330.22,224.26,332.31ZM168.52,175l-.85.1v.46l1.42.17.08-.83-.6.12,1.18-2.76-4.78.34c.55,1.49,2.06,1.19,3.1,1.34Zm29.6-21c-9.17,4.42-13.48,17.51-11.76,23.14.79-.38,1.6-.69,2.32-1.13,4.24-2.6,8.24-5.41,9.78-10.56C199.6,161.57,199,157.89,198.12,153.94Zm-18-17.4a13,13,0,0,0-5.67,10.2c-.2,4.37,1.29,8.29,3.33,12,.59,1.07,1.3,2.18,2.7,2.32.14-.1.23-.14.26-.2,3.56-7.46,3.48-15.06.82-22.73C181.35,137.56,180.66,137.13,180.12,136.54Zm25.44,27.67a21.43,21.43,0,0,0-6,11.1,10.39,10.39,0,0,0,1.29,8.05c1.19,1.83,2.65,3.48,4.06,5.31C209.11,181.57,209.42,169,205.56,164.21ZM188.24,195.3c-1.41-5.06-4.15-8.85-9-10.62-2.88-1-5.89-2.06-9.11-1.19C172.11,193.39,182.48,196.62,188.24,195.3Zm-30.88,66c-.66.32-1.15,1.21-1.52,0a6.69,6.69,0,0,0-1.68.14c.39,1.4.72,2.59,1,3.66C155.39,263.77,157.38,263.31,157.36,261.33ZM191,177.64c-1.57,0-1.57,0-2.74,1.59ZM149.84,12.07c-1.44-.4-1.44-.4-2,.89Zm40.6,167.36L189,181.21C190.56,181.17,190.71,180.62,190.44,179.43Zm46.45-122.2-.06.54,1.11.14.06-.41ZM174.37,163.52l.14-.37-1.07-.41-.13.36Zm36.26,165.86-.38-.19-.45.93.37.18Z"></path><path d="M323.07,332.72c-26.53,1.09-52.66-.2-78.92-.88.21-2.73.45-5.55.63-8.37.46-7.18,1-14.35,1.29-21.54.44-12.29.67-24.6,1-36.9.21-7.51.51-15,.74-22.52.06-1.68,0-3.35,0-5-.07-3-.43-5.78-2.17-8.41-2.64-4-3.08-8.73-3.41-13.33a158.12,158.12,0,0,1-.37-16.29c.31-10.86.79-21.72,1.38-32.57.4-7.18,1.14-14.34,1.7-21.51.4-5,.68-10.05,1.16-15.06.66-6.84,1.56-13.65,2.17-20.5.55-6.12.84-12.27,1.27-18.4.52-7.5,1-15,1.62-22.48q.67-8.48,1.62-16.94a28.48,28.48,0,0,1,1.33-5.07A5.81,5.81,0,0,1,258.34,43a71.18,71.18,0,0,1,7.24-1.56,2.21,2.21,0,0,1,2.81,1.65,25.14,25.14,0,0,1,1.68,6.7c.93,11,0,22.05-.26,33.07-.24,9.52-.51,19,.2,28.52.26,3.46,1.47,6.51,4.52,8.69a2.8,2.8,0,0,0,1.78-2.46c.78-4.07,1.89-8.11,2.27-12.22,1.16-12.65,2.07-25.32,3-38,.79-10.6,1.41-21.21,2.26-31.8.27-3.41,1-6.79,1.6-10.17a3.21,3.21,0,0,1,.9-1.87c4-3.19,8.42-5.51,13.82-4.8a11.43,11.43,0,0,1,1.65.48A15.22,15.22,0,0,1,302,21c-.18,9.91-.27,19.82-.58,29.72-.27,8.14-.89,16.28-1.2,24.42a228.19,228.19,0,0,1-3.11,27.84,61.2,61.2,0,0,0-.42,9.3,3.62,3.62,0,0,0,3.07,3.23,17.08,17.08,0,0,0,4.27.4,2.71,2.71,0,0,0,2.45-2.31c.36-1.55.67-3.12.88-4.7q1.5-11.4,2.94-22.81c1.64-13.07,3.22-26.14,4.89-39.2.61-4.75,1.4-9.48,2.15-14.21,1-6.39,2-12.78,3.12-19.14.43-2.43,1.25-4.78,1.91-7.17.77-2.74,2.83-4.18,5.36-5a38.51,38.51,0,0,1,5.72-1.3c2.68-.41,4.89,1.42,5.18,4.35a28.37,28.37,0,0,1-.15,4.78c-.42,5.26-.89,10.51-1.32,15.77-.48,6-.9,11.95-1.43,17.91-.6,6.69-1.12,13.38-2,20-1.6,12.44-3.47,24.84-5.1,37.28-.68,5.14-1,10.32-1.52,15.49a4.74,4.74,0,0,0,0,1.19,2.16,2.16,0,0,0,3.22,1.69,5.62,5.62,0,0,0,3-3.85c.71-2.7,1.32-5.42,1.91-8.15,2-9.22,3.71-18.48,5.87-27.65q4.11-17.48,8.75-34.83a214,214,0,0,1,6.79-21.95,6.8,6.8,0,0,1,6.46-4.74,15.71,15.71,0,0,1,8.23,2.13c1.47.74,2.44,3.75,2.05,5.7-.85,4.22-1.68,8.44-2.58,12.65-1.88,8.81-3.66,17.65-5.76,26.41-2.25,9.4-4.9,18.7-7.21,28.08-3,12.4-5.93,24.83-8.86,37.25-1.32,5.58-2.63,11.17-3.85,16.78-1.74,8-3.4,16.09-5.06,24.14a18,18,0,0,0-.18,2.45,17.07,17.07,0,0,0,6.52-.9c2.08-.56,4.11-1.3,6.15-2a9,9,0,0,0,5.56-5c2.93-6.56,5.93-13.1,8.69-19.73a62.23,62.23,0,0,1,6.7-12.12,17.43,17.43,0,0,1,10.56-6.93,20.86,20.86,0,0,1,13.15.78c.44.18.85.4,1.28.61a2.34,2.34,0,0,1,0,.76q-5.46,12.51-11,25c-2.91,6.65-5.74,13.34-8.74,20-2.28,5-4.73,9.95-7.17,14.89a18.81,18.81,0,0,1-5.46,6.61c-5.14,3.9-10.32,7.77-15.59,11.5s-10.9,7.5-16.37,11.21c-2.3,1.57-4.63,3.1-7,4.62a6.38,6.38,0,0,0-3.27,5.47c-.17,6.06-.49,12.13-.75,18.19-.27,6.51-.67,13-.78,19.53-.09,5.5.2,11,.23,16.5.07,12.05.07,24.1.13,36.16,0,1.83.23,3.66.26,5.49C323.1,326.53,323.07,329.47,323.07,332.72ZM313.76,151c-3.5,3.47-5.95,7.43-6.14,12.32a17,17,0,0,0,5.26,12.85C317.25,171.38,318.8,158,313.76,151Zm-7.47-2.36c-6.51,2-11.63,5.16-14.64,11.06a27,27,0,0,0-1.92,5.64c-.44,1.75.26,2.33,2.07,2,.23,0,.46-.13.69-.18,6.44-1.52,12.47-8.27,13.41-15C306,151.13,306.13,150.06,306.29,148.66Zm-19.46,38.25c4.48-10-2.87-17.68-9.82-18.36C276.52,176.18,281.25,185,286.83,186.91ZM359,30.72c.81.52,1.05,1.58,2.48.93,1.07-.49.74-1,.82-1.74Zm2.9-4.3c1.82.08,2-.11,1.37-1.57Zm4.47-.73c0-1.3-.73-1.34-1.53-1.23-.09,0-.16.2-.32.4ZM333.61,8.84c1.42-.38,1.42-.38.93-1.46Zm1.18,173.53.1.36,1.11-.27-.1-.41ZM368.56,34.06l.33-.19a2.28,2.28,0,0,0-.29-.73,2.12,2.12,0,0,0-.66-.31l-.18.29ZM324.46,8.48l-.33,0a3.72,3.72,0,0,0-.08.74s.26.08.41.11Z"></path><path d="M244.3,382.46a35.35,35.35,0,0,0,0,4.94c1.07,7.47.77,15,.38,22.45-.07,1.46.71,3-.73,4.54-2.73,0-5.66,0-8.59,0-2.23,0-4.45-.14-6.68-.12s-2.86-.37-2.84-2.67c.06-8.31.17-16.61.19-24.92,0-6.6-.12-13.21-.11-19.81,0-5.49.25-11-.51-16.45a6.69,6.69,0,0,1,.15-1.37c1.27.08,2.43.2,3.59.23,4.71.14,9.42.32,14.13.36a4.1,4.1,0,0,1,4.12,2.45c3.49,6.64,7.17,13.18,10.8,19.75,1.5,2.72,3,5.44,4.63,8.09a10.45,10.45,0,0,0,2.12,1.82,7.34,7.34,0,0,0,.65-1.81c.19-9.73.35-19.47.51-29.06-.27-.78-2.09.1-1.15-1.7h18.24c.38,21.71.09,43.5-.39,65.43a10.43,10.43,0,0,1-1.6.3c-4.47.18-8.93.32-13.39.52a2.85,2.85,0,0,1-2.92-1.55c-5.67-9.43-11.43-18.81-17.15-28.22-.37-.61-.62-1.29-1-1.92C246.26,382.73,246.25,382.74,244.3,382.46Z"></path><path d="M335.25,380c1.68,1.87,3.1,3.73,4.79,5.27,1.89,1.72,2.39,4,2.75,6.22a19,19,0,0,1-3.24,14.14c-1.35,1.94-3.72,3.19-5.68,4.7-4.56,3.49-10,4.07-15.44,4.15-7.65.12-15.31.06-23,.05a25.35,25.35,0,0,1-2.74-.3V349c2.68-.19,5.28-.56,7.88-.54,7.82,0,15.67-.24,23.41,1.23a32.51,32.51,0,0,1,9,3.1,16.26,16.26,0,0,1,7.69,8.26,13.59,13.59,0,0,1,.48,9.55,18.54,18.54,0,0,1-5.61,8.69A2.26,2.26,0,0,0,335.25,380Zm-25.07,18.72a27.35,27.35,0,0,0,9.46.05c1.95-.41,4.44-3.77,4.15-5.77a3.15,3.15,0,0,0-1-1.79,7.67,7.67,0,0,0-2.31-1.19c-2.61-.95-5.33-.72-8-.67a1.88,1.88,0,0,0-2.06,1.88C310.25,393.63,310.24,396.06,310.18,398.69Zm4.22-33.57v.11l-1.2-.06c-2.39-.16-3.16.5-3.21,2.91,0,1.59,0,3.18.09,4.77s.26,2,1.95,2c2.15.07,4.3,0,6.45-.07,2.38-.1,4.09-2.24,4.25-5.2.11-2.18-1.36-3.8-3.8-4.09C317.42,365.32,315.9,365.24,314.4,365.12Zm15,12.69-2.2-.6-.28.42c.36.41.66.95,1.12,1.18C328.22,378.9,328.75,378.31,329.41,377.81Z"></path><path d="M61.4,363l-16.6,9.42c-2.43-1.5-4.88-2.83-7.15-4.42-5.57-3.91-13.68-.32-16.43,4-4.09,6.47-4.17,18.22,3.59,24.69a8.16,8.16,0,0,0,5.59,1.76c4.83-.14,9-1.81,12-5.7-.24-1.28-1.11-1.06-1.9-1.05H29.33c-.45-5.44.27-10.63.41-16,.91-.05,1.53-.12,2.14-.11,7.34.16,14.68.4,22,.48,2.7,0,5.41-.3,8.12-.45a12.65,12.65,0,0,1,1.45.13c0,2.18,0,4.31,0,6.44,0,1.75-.12,3.51-.21,5.26a30.61,30.61,0,0,1-5.07,15.71c-3.33,5-8.13,8-13.45,10.32a18.56,18.56,0,0,1-4.45.85c-4.83.79-9.66,1.27-14.51.18a7.82,7.82,0,0,1-2.06-.55c-6.52-3.58-13-7.21-17.13-13.78A37,37,0,0,1,.64,382.81c-.09-1.13-.79-2.31-.61-3.37.55-3.26,1-6.66,2.21-9.67A36.21,36.21,0,0,1,11,357.68c3.51-3.32,7.73-5.25,12.19-6.85,7.63-2.72,15.2-2.26,22.67.47A33.21,33.21,0,0,1,61.4,363Z"></path><path d="M424.74,508.76c.26,1,.49,1.81.84,3.12l1.14-3.65c.94,1.69.59,7.59-.54,10.17-.14,0-.37,0-.41-.14-1-2.15-2.91-2.11-4.86-2.11-9.58,0-19.16,0-28.74,0-6.22,0-12.45,0-18.67.15-5.25.12-10.5.57-15.75.63-4.71.05-9.43-.07-14.11-.43-8-.62-15.94-.73-23.93-.73-9.1,0-18.19,0-27.29-.14-13.41-.23-26.81-.61-40.22-.91-4.7-.11-9.39-.22-14.09-.22-7.17,0-14.34.1-21.51.15-12.34.08-24.67.19-37,.18-6.46,0-12.91-.31-19.37-.36-5.5,0-11,.09-16.5.16l-15.79.22c-9.34.14-18.68.39-28,.43-8.37,0-16.74-.16-25.11-.23-2.15,0-4.3.07-6.44,0-2.47,0-5-.14-7.42-.11-4.3,0-8.6.19-12.95.29-.86-1.11-2.52-1.86-1.62-3.85l1,.21c1.53-1.71-.67-2.76-.87-4.43a39.86,39.86,0,0,0,4.09.45c5.34,0,10.69,0,16,0,11.32.06,22.65.19,34,.24,5.33,0,10.66-.08,16-.05,4.39,0,8.77.19,13.16.24q12.08.16,24.16.26c3.58,0,7.15-.06,10.72-.16,3.8-.1,7.58-.31,11.38-.39,2.11-.05,4.22.12,6.33.13a24.78,24.78,0,0,0,3.22-.23,10.14,10.14,0,0,1,5,.48A1.79,1.79,0,0,0,192,508a2,2,0,0,1,3.21.63,5.43,5.43,0,0,1,2.75-.54c1.41.15,2.78.1,4,.88.16.1.56-.26.85-.28,1.09,0,2.19,0,3.28-.05a8.26,8.26,0,0,0,3.22-.58,7.24,7.24,0,0,1,1.42.8,2.05,2.05,0,0,0,2.39.37,5.7,5.7,0,0,1,2.57-.18,22.81,22.81,0,0,0,6.6,0,27.76,27.76,0,0,1,3.53,0c2.78-.08,5.57-.25,8.35-.3a12.52,12.52,0,0,1,2.24.39,2.91,2.91,0,0,0,.83.06,23.39,23.39,0,0,1,3.67-.6c6.62,0,13.23.05,19.85.05,2.31,0,4.62-.18,6.92-.18,4.3,0,8.6.09,12.9.06,5.26,0,10.52-.16,15.78-.23,4.3-.07,8.6-.19,12.9-.17,7.18,0,14.37.11,21.55.22,5.42.08,10.83.31,16.25.33,6.95,0,13.89-.13,20.83-.11,6.07,0,12.13.2,18.19.26,9.65.1,19.3.16,29,.24,1.43,0,2.87.08,4.3,0C421.09,509,422.82,508.87,424.74,508.76Zm-227,4.86c.34-2.14-.27-3.25-2.14-3.62Zm5.93-4.1-2.15,1.73.39.44C202.18,510.74,204.15,511.59,203.66,509.52Zm13.76,2,.07-.59c-.47-.06-.94-.14-1.42-.16,0,0-.07.49-.11.75Zm-45.87-.46-.25.33,1.09.76.17-.24Zm41.22.27-.53-.54-1.06,1.76Z"></path><path d="M72.94,350.09c6.45,0,12.52-.16,18.57.05A133.64,133.64,0,0,1,105,351.39a28.9,28.9,0,0,1,7.1,2,10.33,10.33,0,0,1,5.49,5.06,66,66,0,0,1,3.41,7.63,21.78,21.78,0,0,1-1.59,17.61c-1.29,2.51-2.49,5.14-4.66,7.16-1,.93-.55,2.2,0,3.32,2,3.93,3.91,7.86,5.81,11.82.87,1.8,1.63,3.64,2.39,5.49a12.33,12.33,0,0,1,.4,1.93c-2.2,0-4.16,0-6.12,0-3.19,0-6.39-.25-9.57-.09-2.22.12-3.32-.86-4.22-2.68-2.2-4.42-4.51-8.78-6.92-13.44-2,.5-4,.93-6,1.5-1.06.31-1,1.35-1,2.22,0,4.23,0,8.46,0,12.69v1.13H72.92c0-1.45-.06-2.7,0-3.94.61-10.86.52-21.71.16-32.57-.21-6.36-.4-12.72-.47-19.08C72.58,356.19,72.82,353.21,72.94,350.09Zm17.17,15.77a6.91,6.91,0,0,0-.37,1.61c0,4.06.09,8.13.14,12.2a1.58,1.58,0,0,0,1.77,1.77c1.51,0,3-.09,4.53.07,4.25.48,7-1.32,7.74-5.48.8-4.46-.46-7.48-4.86-9.18a16.73,16.73,0,0,0-7.7-1.25C91,365.65,90.59,365.76,90.11,365.86Z"></path><path d="M383,491.93h-3.37c-3.75,0-7.49-.09-11.24-.05-2,0-2.17.06-2.82-1.77a17.79,17.79,0,0,1-.78-3.22c-.23-1.51-.57-2-2-2.17a13.57,13.57,0,0,0-1.43,0l-11.48-.22a2.66,2.66,0,0,1-.93-.14c-2.47-.93-4.05-.21-4.93,2.11-.5,1.32-1.28,2.53-1.83,3.84a2.15,2.15,0,0,1-2.45,1.36c-4.47-.18-8.94-.26-13.4-.38l-2.61-.08c.85-2.54,1.6-4.69,2.3-6.86,2.5-7.74,4.89-15.52,7.49-23.23,3.36-10,6.89-19.91,10.29-29.88.68-2,1.74-3,4-2.9,4.94.14,9.88,0,15,0,.34.87.71,1.73,1,2.62,2.83,8.81,5.56,17.65,8.52,26.42,1.48,4.36,3.53,8.53,5.06,12.88,1.46,4.13,2.57,8.38,3.83,12.57.62,2,1.3,4.08,1.81,6.15A13.14,13.14,0,0,1,383,491.93Zm-34.65-22.29c2.6.93,5.33-.22,8,0a7.47,7.47,0,0,0,2.35-.57c-1.07-5.3-3.83-11.32-5.9-12.65Z"></path><path d="M187.44,437.35c-.71,1.35-9.69,8.44-14.29,11.32a11.47,11.47,0,0,1-1.26-1.34c-2.43-3.54-6-4.17-9.9-3.88a5.4,5.4,0,0,0-1.83.52,2.8,2.8,0,0,0-1,4.71,9.38,9.38,0,0,0,3.21,1.95c5.72,2.26,11.53,4.28,17.17,6.7a24.8,24.8,0,0,1,6.51,4.35,8.89,8.89,0,0,1,2,4,21,21,0,0,1,1.13,9.4,14.9,14.9,0,0,1-5.47,9.51c-3.12,2.61-6.3,5.18-10.22,6.53a25.54,25.54,0,0,1-4.64,1.13,58.05,58.05,0,0,1-16.17-.42c-6.45-.9-10.93-4.82-15.56-9a9.7,9.7,0,0,1,1.05-1.42c4-3.65,8-7.26,12.05-10.9,1.19-1.09,1.63-1.11,2.58.36,2.27,3.53,5.75,5.22,9.56,6.32a6.51,6.51,0,0,0,5.52-.85,3.09,3.09,0,0,0,.66-4.71c-1.5-1.69-3.6-2-5.63-2.35a33.35,33.35,0,0,1-18.82-9.1,15.42,15.42,0,0,1-4.37-9.59A18.28,18.28,0,0,1,143.81,437a26.46,26.46,0,0,1,9.91-8.12,19.88,19.88,0,0,1,6-1.62,25,25,0,0,1,17,3.57c2.55,1.64,5.11,3.28,7.68,4.89C185.31,436.26,186.31,436.74,187.44,437.35Z"></path><path d="M179.08,349.69c2.79-.78,35.94-.74,39.3.07-.22,4.8-.43,9.64-.68,14.47-.09,1.66-.32,1.93-2.06,1.91-4.94-.08-9.89.41-14.8-.43a6,6,0,0,0-1.2,0c-1.3,0-1.73.46-1.76,1.71s0,2.39,0,3.58a2.23,2.23,0,0,0,2.29,2.44c4.62.19,9.24.3,13.87.46,1.16,0,2.33.16,3.53.25v15.46a14.72,14.72,0,0,1-2.1.33c-5.26.06-10.52.07-15.79.1-2,0-2.51.64-2.33,2.64.08.95.09,1.91.18,2.86s.21,1.69.36,2.78h3.42c5,0,10.06,0,15.09,0,1.51,0,2.24.78,2.14,2.22-.21,2.77-.49,5.55-.77,8.32a2.43,2.43,0,0,1-.41,1.21c-.39.49-.19.73.09,1.2a7.61,7.61,0,0,1,.52,2.14l-2.33.21,2-1.33-2.52-1.35L212.55,413l1.47.26v.33h-35C178.73,392.26,179,371,179.08,349.69Zm31.22,60.82c1-.81.89.79,1.23.78l2.58-1.1c-1-.18-2-.32-2.88-.54s-.88.33-.91.89c-2.12-.19-2.63.31-1.9,2Z"></path><path d="M149.74,366.45c0,2.33-.05,4.55,0,6.75a1.69,1.69,0,0,0,1,1.15,5,5,0,0,0,2.12.26c5.4-.35,10.8-.75,16.52-1.16a13.29,13.29,0,0,1,.33,2.42c-.09,3-.27,6.07-.4,9.1-.05,1,0,2.08-.07,3.12-.07,1.69-.29,1.9-2,2-3.43.11-6.86.16-10.29.31a32.2,32.2,0,0,0-5.65.56c-1.8.41-1.71.59-1.54,2.51a17.56,17.56,0,0,1-.08,2.61c-.09,1.4.3,2.12,1.69,2.45a11,11,0,0,0,3.08.19c5-.3,10-.67,15-1a3.05,3.05,0,0,1,.67.13c.52,1.51.46,13.57-.13,16.1h-4.18l-29,.23a10.9,10.9,0,0,1-5.44-1.09v-7.21c0-8-.06-16,0-23.95.08-8.46.29-16.91.44-25.36,0-1.91,0-3.83.08-5.74,0-1.53.26-1.78,1.85-1.75q9.71.21,19.4.45c4.95.11,9.89.24,14.84.33,1.65,0,2.12.33,2.06,1.88-.17,4.69-.45,9.38-.7,14.42-3.28,0-6.52-.09-9.74.1S153.22,365.66,149.74,366.45Z"></path><path d="M271.91,428.05c2.36,0,4.44,0,6.5,0,3.75.1,7.5.3,11.25.37a2,2,0,0,1,2.25,1.61c2.08,6.95,4.26,13.88,6.38,20.82.84,2.74,1.6,5.51,2.44,8.25a14.53,14.53,0,0,0,1.16,2.15c2.4-5.78,4.59-11,6.76-16.27s4.37-10.62,6.59-16c5.81.17,11.59.07,17.66.41-1.07,3.45-2,6.48-3,9.51-1.87,5.94-3.7,11.89-5.63,17.8-2.3,7.05-4.68,14.08-7,21.1-1.33,3.94-2.71,7.85-4,11.79a2.45,2.45,0,0,1-2.58,2c-3.35,0-6.69.17-10,.32-2,.09-4,.25-6,.43s-2,.21-2.5-1.56c-1.32-4.43-2.49-8.9-3.91-13.29-4.36-13.51-8.81-27-13.26-40.47-.72-2.19-1.61-4.33-2.4-6.5C272.33,429.74,272.17,429,271.91,428.05Z"></path><path d="M92.05,429l36.83-.72c.16,5.82.3,11.3.45,17.11-1,.09-2.09.24-3.16.26-4.87.07-9.74.11-14.61.17-.38,0-.76,0-1.33.06v6.65c2.44-.12,4.64-.23,6.85-.32,4-.18,8-.37,12-.51,1.26,0,1.45.25,1.47,1.85.05,3.67.07,7.34.12,11,0,.95.09,1.9.14,3a12,12,0,0,1-1.61.35c-4.86.39-9.71.74-14.57,1.12-.63,0-1.27.14-1.9.23a1.29,1.29,0,0,0-1.2,1.51c.13,1.81.32,3.62.51,5.68,2.06,0,4,.05,5.84,0,3.33-.11,6.67-.32,10-.42,2.76-.09,2.88,0,3,2.69.09,1.84.08,3.67.09,5.51,0,2.29,0,4.58,0,7.15-2.11,0-4.4,0-6.69,0q-11.35.19-22.7.45c-1.82,0-3.65.06-5.47.22-1.25.11-2.48.44-4.07.74a50.21,50.21,0,0,1-.35-5c.17-6.83.6-13.67.63-20.5,0-11-.15-22-.23-33C92,432.51,92.05,430.85,92.05,429Z"></path><path d="M57.73,265.47c2,.42,4,.9,6,1.25,3.53.62,7.06,1.34,10.62,1.7,6,.61,10.28,4.35,14.82,7.69a1.2,1.2,0,0,1,.32.35c1.25,1.92,2.4,3.91,3.77,5.75,2.72,3.67,3.72,7.87,4.1,12.3a5.47,5.47,0,0,0,.24,1.64c.16.38.62.86,1,.86a1.45,1.45,0,0,0,1-.83c.55-1.4.91-2.88,1.5-4.26A56,56,0,0,1,109.41,278c.91-1.11,1.7-2.32,2.52-3.5a39,39,0,0,1,9.54-9.25,69.77,69.77,0,0,1,7.94-4.43,2.84,2.84,0,0,1,3.33.42c-1.1,8.82-2,17.61-3.33,26.34A22.37,22.37,0,0,1,124.06,299a113.32,113.32,0,0,1-9,9.62,10.68,10.68,0,0,1-6.14,2.9,10.9,10.9,0,0,0-2.53.68,2.46,2.46,0,0,0-1.79,2.07c-.17,1.57-.23,3.16-.26,4.74,0,.87.2,1.75.15,2.62-.22,3.82-.49,7.64-.75,11.59-2.58,1-5.11-.4-7.87-.22a8.07,8.07,0,0,1-.12-1.64,105.38,105.38,0,0,0,.54-18.88,6.58,6.58,0,0,0-3-5.4c-4-2.82-8-5.74-11.9-8.79a85.49,85.49,0,0,1-14.71-14.92c-3.62-4.67-6.11-9.89-8.56-15.15a10.06,10.06,0,0,1-.44-2.73Z"></path><path d="M351.57,414V351.23c2.45-.85,33.89-.74,37.12.15v14.09a5.75,5.75,0,0,1-1.2.27c-5.27.08-10.54.16-15.8.19-2.14,0-2.72.59-2.41,2.69.18,1.18.35,2.36.48,3.55.2,1.69.36,2.09,2.18,2.2,3,.19,6,.11,9.07.1,2,0,4-.17,6-.1,1.77.06,2.08.42,2.1,2.18,0,4.54,0,9.08,0,14h-3.71c-4.7,0-9.41,0-14.12,0-2.26,0-2.25.13-2.2,2.32,0,1-.08,2.07-.1,3.11-.06,2.06.74,2.87,2.84,2.85l15.56-.14a10.25,10.25,0,0,1,1.37.17c-.14,4.84-.28,9.6-.42,14.58C376.17,414.33,364,413.53,351.57,414Zm8.25-51.55c.94-1.32.48-1.85-.53-2.61C359.49,360.83,359.62,361.45,359.82,362.44Z"></path><path d="M386.84,298.07c-1.44-.25-1.3,1-1.3,2,0,2.56,0,5.11,0,7.67.05,6.47.12,12.94.14,19.41,0,1.51-.13,3-.24,4.54a1.25,1.25,0,0,1-1.41,1.28h-6.34c0-.57-.13-1.1-.13-1.62.08-4.23.22-8.46.25-12.69,0-5.43,0-10.87,0-16.3,0-1.6.09-3.23-1.3-4.42a.67.67,0,0,1-.22-.42c-.28-3-2.64-4.43-4.62-6.12-4.6-3.95-9.42-7.64-13.65-12a51.57,51.57,0,0,1-10.39-15.4c-2.15-5-4.39-9.92-6.51-14.92-.6-1.42-1.4-2.85-1-4.87a11.13,11.13,0,0,1,2.47.5c7.77,3.55,15.72,6.81,22.11,12.74,2,1.85,3.74,3.93,5.72,5.79a42.52,42.52,0,0,1,11.34,18.6,8.46,8.46,0,0,0,1,1.57c.9-3.17,1.57-5.88,2.44-8.53a25.05,25.05,0,0,1,2.42-5.92,37.62,37.62,0,0,1,9.56-10.29c1.4-1,2.6-2.33,3.91-3.48.54-.48,1.15-.87,1.7-1.33,1.17-1,2.3-1.94,3.49-2.86q2.64-2.06,5.36-4a4.16,4.16,0,0,1,1.36-.29c-.27,2-.39,3.81-.77,5.57-.82,3.81-1.79,7.59-2.67,11.39a49.25,49.25,0,0,1-8.25,18.21,77.9,77.9,0,0,1-11.84,12.45,11.32,11.32,0,0,0-1.77,1.6A10,10,0,0,0,386.84,298.07Z"></path><path d="M48.1,492.64c-.11-3-.27-5.74-.29-8.44,0-5.35,0-10.69,0-16,0-9.56,0-19.12-.08-28.68,0-3-.14-6.06-.22-9.09,0-1.64.46-2.26,2-2.22,10,.22,19.92.48,29.88.72.88,0,1.76,0,2.63,0,1.44.08,1.86.46,1.87,1.89,0,4.38,0,8.76,0,13.26-6,1.07-11.81-.77-17.88,0,.25,3.06.46,5.8.7,8.85,2,0,3.91.11,5.77.09,3.59,0,7.18-.16,10.77-.21,1.15,0,1.4.61,1.32,1.73-.33,4.61-.56,9.23-.84,14.06-5.84,1.38-11.94.15-18,1.35-.06.83-.16,1.61-.17,2.38-.11,5.58-.2,11.16-.3,16.74,0,.32,0,.64,0,1,.17,3,0,3.2-2.89,3.11Z"></path><path d="M225.29,492.94H209.1c0-1.78,0-3.51,0-5.23.28-8.86-.39-17.69-.9-26.52-.26-4.52-.15-9.07-.21-13.6,0-.4,0-.8-.05-1.2-.18-1.59-.5-1.92-2.15-1.89-3.88.08-7.76.22-11.7.34-.48-1.34-.68-14.59-.1-16.38,15.26-.48,30.62-.32,46.21-.6.61,5-.26,9.84,0,14.86-1.05.21-2,.46-2.87.56-3.09.35-6.19.69-9.29,1-1.05.09-1.66.48-1.73,1.54-.09,1.34-.16,2.68-.18,4-.12,6-.18,11.94-.33,17.91-.15,6.3-.38,12.59-.54,18.89C225.24,488.66,225.29,490.72,225.29,492.94Z"></path><path d="M474.62,360.45l-1.55.34c.09.27.1.58.25.67,1.76,1.05,1.34,2.74,1.15,4.26-.12,1-1.12.93-1.93.92l-10.28-.19h-1.65c-.14,2.15-.34,4.18-.38,6.22q-.17,9.34-.21,18.68c0,6.55,0,13.1,0,19.65,0,1.08-.17,2.17-.28,3.45l-15.37.62c.32-8.17-.36-16-.84-23.86s-.27-15.94-1.38-24H428.85V350.55c1-.68,2.44-.55,3.83-.58,5-.09,10.06-.06,15.09-.2,2.06,0,4.11-.46,6.17-.6a15.49,15.49,0,0,1,4.51,0,41.14,41.14,0,0,0,13,.8c.55-.05,1.11,0,1.67,0a1.26,1.26,0,0,1,1.48,1.44c0,1.36,0,2.72,0,4.07Zm-4.3-4.93-.54-.24c-.19.51-.39,1-.59,1.55l.47.17Zm-.36-2.86c.05-.51.13-.75.07-.78a2.87,2.87,0,0,0-.65-.27C469.53,351.87,469.67,352.14,470,352.66Z"></path><path d="M427.75,474.62a9.61,9.61,0,0,1-.21,1.8,33.32,33.32,0,0,0-1.76,10.24c-.07,1.58-.31,3.17-.54,4.75a1.86,1.86,0,0,1-2.07,1.84c-4.85,0-9.7,0-14.55-.12-5.5-.1-11-.28-16.52-.45-.85,0-1.71-.19-2.64-.3,0-1.3.05-2.41,0-3.51-.08-1.51-.27-3-.37-4.51a4.85,4.85,0,0,1,0-1.9c1.23-3.57.73-7.27.84-10.92.27-8.54.44-17.08.57-25.62.09-5.25.05-10.51,0-15.76,0-1.89.1-1.9,2-1.88,3.66.05,7.33,0,11-.09,4.45-.15,4.67.08,4.56,4.54q-.37,14.72-.59,29.42c0,2.31.32,4.62.4,6.93a15.6,15.6,0,0,1-.24,3.55c-.4,1.92-.06,2.39,2,2.31,2.54-.1,5.08-.24,7.61-.24,2.31,0,4.61.19,6.92.22C425.29,474.93,426.38,474.74,427.75,474.62Zm-2.42,2-.32-.06c-.13.35-.25.71-.38,1.06.13,0,.36.05.37,0C425.13,477.33,425.23,477,425.33,476.65Z"></path><path d="M398.52,414.24c-.41-21.16-.81-42.11-1.22-63.26h17.6a14.53,14.53,0,0,1,.36,2.13c.16,8.21.28,16.42.44,24.64.12,6.06.27,12.12.41,18.18,0,.55,0,1.1,0,1.8.68,0,1.22.1,1.75.09,4-.08,8-.19,11.95-.25,1.34,0,2.68.08,4,.11,1.15,0,1.53.69,1.47,1.72-.12,2.23-.27,4.46-.4,6.69s-.25,4.17-.34,6.26c-.08,1.6-.15,1.77-1.73,1.78q-14.6.08-29.18.11Z"></path><path d="M266.39,491.68c-4.47.21-8.68.39-12.9.6-1.18.06-2.37.18-3.55.33-1.51.18-1.9-.14-1.79-1.62a214.28,214.28,0,0,0,.38-21.51c-.17-6.29,0-12.59,0-18.88.06-6.85.16-13.7.22-20.55,0-2.66.19-2.77,2.91-2.63,4.54.24,9.08.4,13.62.54,2.18.07,2.42.09,2.44,2.27,0,4-.18,8-.25,12-.2,10.13-.35,20.25-.56,30.38-.09,4.55-.28,9.1-.4,13.64,0,1,.05,1.92,0,2.88S266.46,490.77,266.39,491.68Z"></path><path d="M239.33,492.43l-4-.44c.68-2.61,1.49-5,1.87-7.38a70.33,70.33,0,0,0,.44-7.13h.54c.08,1.68.06,3.37.26,5s.7,3.22.87,4.85S239.33,490.38,239.33,492.43Z"></path><path d="M239.28,253.58a3.55,3.55,0,0,1,1.38,3.69c-.07.67-.14,1.35-.17,2q-.37,7.62-.73,15.24h-.48Z"></path><path d="M273.86,59.06c-.18-2.66-.36-5.32-.57-8.39C275.75,53.59,274.74,56.33,273.86,59.06Z"></path><path d="M87.76,488.79l.51,3.42H85.53C85,490.26,86.9,490.18,87.76,488.79Z"></path><path d="M66.29,352.31c-1.77-.38-1.63-1.78-2.13-3.23.82,0,1.63-.24,1.9,0C66.9,350,66.74,351.1,66.29,352.31Z"></path><path d="M82.93,488.25c.33,1.58.59,2.83.94,4.49l-2.58-.39C83.39,491.29,81.94,489.74,82.93,488.25Z"></path><path d="M57.73,265.44c-1.35,1.15-1.53,1.1-2.53-.76,1.21-.88,1.73.44,2.53.79Z"></path><path d="M79.51,489.6a18.93,18.93,0,0,1,1,1.92,1.16,1.16,0,0,1-.2.84c-.08.12-.52.2-.59.12a1.67,1.67,0,0,1-.51-.93A11.8,11.8,0,0,1,79.51,489.6Z"></path><path d="M128.37,255.43l2.87-.61.16.47a3,3,0,0,1-1,.53,11.72,11.72,0,0,1-1.87-.09,1.43,1.43,0,0,1-.22-.08Z"></path><path d="M145.13,462.48l2.3,1.94C145.81,464.33,145.17,463.79,145.13,462.48Z"></path><path d="M32.33,373.19H29.5v-.35h2.84Z"></path><path d="M59.32,260.93H57C57.89,259.65,58.47,260,59.32,260.93Z"></path><path d="M23.2,381.5l.19-1.6h.36a4.4,4.4,0,0,1,.1.88,4,4,0,0,1-.22.8Z"></path><path d="M262,349.44l.37,1.5-.36.1c-.16-.49-.33-1-.49-1.47Z"></path><path d="M170.4,365.11v-1.39h.1l.08,1.41Z"></path><path d="M69.82,351.6v1l-.3,0-.18-1Z"></path><path d="M273.73,492.05c-.19-.23-.47-.44-.44-.53a.77.77,0,0,1,.49-.43c.12,0,.42.27.41.39S273.94,491.81,273.73,492.05Z"></path><path class="cls-1" d="M168.52,175l0,0,.6-.12-.08.83-1.42-.17v-.46Z"></path><path class="cls-1" d="M174.37,163.52l-1.06-.42.13-.36,1.07.41Z"></path><path class="cls-1" d="M210.63,329.38l-.46.92-.37-.18.45-.93Z"></path><path class="cls-1" d="M329.41,377.81c-.66.5-1.19,1.09-1.36,1-.46-.23-.76-.77-1.12-1.18l.28-.42Z"></path><path class="cls-1" d="M210.33,410.56c0-.58,0-1.11.9-.91s1.88.36,2.88.54l-2.58,1.1c-.34,0-.19-1.59-1.23-.78Z"></path><path class="cls-1" d="M210.3,410.51l-1.88,2c-.73-1.67-.22-2.17,1.9-2C210.33,410.56,210.3,410.51,210.3,410.51Z"></path><path class="cls-1" d="M359.82,362.44c-.2-1-.33-1.61-.53-2.61C360.3,360.59,360.76,361.12,359.82,362.44Z"></path><path class="cls-1" d="M425.33,476.65c-.1.34-.2.68-.33,1,0,0-.24,0-.37,0,.13-.35.25-.71.38-1.06Z"></path></g></g></svg>
